<svg xmlns="http://www.w3.org/2000/svg" version="1.1" xmlns:xlink="http://www.w3.org/1999/xlink" xmlns:svgjs="http://svgjs.dev/svgjs" width="1000" height="1000" viewBox="0 0 1000 1000"><rect width="1000" height="1000" fill="#000000"></rect><g transform="matrix(0.7,0,0,0.7,149.57575757575756,282.1265587044535)"><svg viewBox="0 0 396 247" data-background-color="#f5edee" preserveAspectRatio="xMidYMid meet" height="623" width="1000" xmlns="http://www.w3.org/2000/svg" xmlns:xlink="http://www.w3.org/1999/xlink"><g id="tight-bounds" transform="matrix(1,0,0,1,0.2400000000000091,-0.09999999999999432)"><svg viewBox="0 0 395.52 247.2" height="247.2" width="395.52"><g><svg></svg></g><g><svg viewBox="0 0 395.52 247.2" height="247.2" width="395.52"><mask id="41880759-9ad2-4bf2-900b-5cbc3dbd6d9e"><rect width="640" height="400" fill="white"></rect><g transform="matrix(1,0,0,1,0,100.78369991474851)"><svg viewBox="0 0 395.52 45.632600170502975" height="45.632600170502975" width="395.52"><g><svg viewBox="0 0 395.52 45.632600170502975" height="45.632600170502975" width="395.52"><g><svg viewBox="0 0 395.52 45.632600170502975" height="45.632600170502975" width="395.52"><g><svg viewBox="0 0 395.52 45.632600170502975" height="45.632600170502975" width="395.52"><g id="SvgjsG1317"><svg viewBox="0 0 395.52 45.632600170502975" height="45.632600170502975" width="395.52" id="SvgjsSvg1316"><g><svg viewBox="0 0 395.52 45.632600170502975" height="45.632600170502975" width="395.52"><g transform="matrix(1,0,0,1,0,0)"><svg width="395.52" viewBox="-1.100000023841858 -38.45000076293945 352.8699951171875 41.60000228881836" height="45.632600170502975" data-palette-color="#6e5f5f"><path d="M11.8-16.55L12-17.2 12.5-18.6Q12.85-19.45 13.7-22.7L13.7-22.7 14.05-24Q14.25-24.75 14.95-26.85 15.65-28.95 16.05-30.1L16.05-30.1Q16.3-30.65 16.65-31.75L16.65-31.75Q17.95-35.05 18.55-35.05L18.55-35.05Q18.9-35.05 19-34.95 19.1-34.85 19.15-34.6 19.2-34.35 19.25-34.2L19.25-34.2Q19.35-33.8 19.5-33.27 19.65-32.75 19.75-32.1L19.75-32.1Q21.75-26.9 22.15-25.9L22.15-25.9 23.7-22.55 24.6-20.55Q24.7-20.85 24.8-21L24.8-21 25.3-22.25Q25.4-22.55 25.7-24.3L25.7-24.3Q26.05-26.5 26.3-27.45L26.3-27.45Q26.55-28.4 27.2-30.2L27.2-30.2Q27.95-32.4 28.05-33.15L28.05-33.15Q28.25-34.9 29.25-34.9L29.25-34.9Q30.05-35.1 31.05-35.1L31.05-35.1Q31.55-35.1 31.7-35.05L31.7-35.05Q32.3-35.05 32.3-34.6L32.3-34.6 32.2-34 31.75-32.6Q31.4-31.25 31.15-30.55L31.15-30.55Q30.9-29.65 30.55-28.4 30.2-27.15 29.85-25.85L29.85-25.85Q29.1-22.9 28.55-21.05L28.55-21.05Q28.25-19.85 27.9-17.53 27.55-15.2 27.55-14.8L27.55-14.8Q27.55-13.6 26.85-11.9L26.85-11.9Q26.6-11.15 26.1-8.6 25.6-6.05 25.45-5.15L25.45-5.15Q24.95-1.85 24.75-1.5L24.75-1.5Q24.7-1.2 24.63-0.78 24.55-0.35 24.48-0.15 24.4 0.05 24.25 0.05L24.25 0.05Q23.85 0.05 23.68-0.15 23.5-0.35 23.2-1L23.2-1Q22.8-1.5 21.15-5.85L21.15-5.85Q20.8-6.75 19.05-11.7L19.05-11.7Q18.75-12.75 18.05-14.55L18.05-14.55 17.35-16.4 16.65-15Q16.15-13.9 15.15-11.3L15.15-11.3 14.75-10.3Q14.15-8.55 12.85-3.15L12.85-3.15 12.5-1.7Q12.35-1.1 12.03-0.53 11.7 0.05 11.45 0.05L11.45 0.05Q11.1 0.05 10.93-0.2 10.75-0.45 10.6-1L10.6-1Q10.4-1.4 9.9-3.85L9.9-3.85Q9.7-4.65 9.3-6.28 8.9-7.9 8.7-8.4L8.7-8.4Q8.25-9.5 7.65-11.63 7.05-13.75 6.95-14.15L6.95-14.15Q6.55-15.1 4.65-22.2L4.65-22.2Q4.35-23.15 4.1-24.08 3.85-25 3.65-25.7L3.65-25.7 2.7-29.25 1.6-33.3Q1.4-33.95 1.4-34.3L1.4-34.3Q1.4-34.45 1.5-34.5 1.6-34.55 1.75-34.55L1.75-34.55 3.3-34.55Q4.15-34.55 4.5-34.6L4.5-34.6 5.05-34.7Q5.55-34.85 5.73-34.55 5.9-34.25 6.1-33.3L6.1-33.3Q6.2-32.9 7.1-29.78 8-26.65 9.2-23.65L9.2-23.65Q10.15-20.7 10.95-18.75L10.95-18.75 11.8-16.55ZM57.95-33.25L57.95-32.7Q57.95-31.55 57.75-31.55L57.75-31.55Q57.45-31.55 57.07-31.63 56.7-31.7 56.15-31.7L56.15-31.7 48.15-31.7 41.95-31.75Q41.65-31.75 39.7-31.6L39.7-31.6 38.55-31.5 38.45-30.15Q38.4-29.4 38.4-27.8L38.4-27.8Q38.4-27 38.5-25.7L38.5-25.7Q38.6-24.5 38.6-23.95L38.6-23.95 38.6-21.95Q38.6-21.15 38.65-20.7L38.65-20.7Q39.1-20.65 40-20.65L40-20.65 42-20.65Q42.3-20.65 43.2-20.75L43.2-20.75Q44.5-20.85 45.45-20.85L45.45-20.85Q45.85-20.85 48.25-20.7L48.25-20.7 49.35-20.65Q49.75-20.65 50.5-20.73 51.25-20.8 51.95-20.8L51.95-20.8 53.6-20.75Q54.9-20.65 55.4-20.65L55.4-20.65Q55.95-20.65 56.15-20.7L56.15-20.7 56.45-20.75Q56.8-20.75 56.95-20.53 57.1-20.3 57.05-20.1L57.05-20.1Q57-19.75 57-19.23 57-18.7 56.95-18.3L56.95-18.3Q56.9-17.9 56.8-17.82 56.7-17.75 56.2-17.75L56.2-17.75 54.2-17.95Q50.45-18.3 49.3-18.3L49.3-18.3Q45.05-18.3 43.05-18.15L43.05-18.15Q42.25-18.05 41.3-18.05 40.35-18.05 40.1-18.05L40.1-18.05Q39.15-18.05 38.7-18.1L38.7-18.1 38.55-17.3Q38.45-16.4 38.45-15.7L38.45-15.7Q38.45-15.1 38.55-14.3L38.55-14.3Q38.65-13.5 38.65-12.9L38.65-12.9 38.7-6.95 38.65-4.45Q38.6-4 38.6-3.2L38.6-3.2Q39.25-3.15 40.5-3.15L40.5-3.15Q41.55-3.1 43.75-3.1L43.75-3.1 46.45-3.05Q47.3-3 49.05-3L49.05-3Q50.1-3 51.8-3.1L51.8-3.1 53.9-3.15Q55.1-3.15 55.9-3.1 56.7-3.05 57.1-3.05L57.1-3.05Q57.5-3.05 57.57-2.9 57.65-2.75 57.65-2.25L57.65-2.25Q57.65-1.9 57.6-1.53 57.55-1.15 57.55-0.7L57.55-0.7Q57.55-0.35 57.3-0.23 57.05-0.1 56.5-0.1L56.5-0.1Q55.95-0.1 55.6-0.15L55.6-0.15Q54.25-0.3 50.15-0.3L50.15-0.3Q47.65-0.3 46.55-0.25L46.55-0.25Q45.7-0.2 43.75-0.2L43.75-0.2 39.1-0.25Q38.3-0.3 37.2-0.3L37.2-0.3Q36.5-0.3 36.27-0.48 36.05-0.65 36.05-1.05L36.05-1.05 36.1-1.85Q36.15-2.05 36.15-2.3L36.15-2.3Q36.15-2.45 36.1-3.03 36.05-3.6 36.05-5.15L36.05-5.15Q36.05-6.65 35.95-10.05L35.95-10.05Q35.8-12.85 35.8-15.45L35.8-15.45Q35.8-16.55 36.05-21.8L36.05-21.8Q36.1-22.85 36.15-23.9 36.2-24.95 36.2-25.8L36.2-25.8Q36.2-31.6 36.05-33.45L36.05-33.45Q35.9-34.65 37.5-34.65L37.5-34.65Q37.9-34.65 38.8-34.55L38.8-34.55Q39.6-34.45 40-34.45L40-34.45 43.15-34.55Q46.55-34.75 48.4-34.75L48.4-34.75Q50.55-34.75 54.45-34.65L54.45-34.65Q55.7-34.6 57.1-34.6L57.1-34.6Q57.7-34.6 57.85-34.3 58-34 57.97-33.68 57.95-33.35 57.95-33.25L57.95-33.25ZM75.25-19.2Q78.05-18.9 80.2-17.55L80.2-17.55Q85.2-14.4 85.2-7L85.2-7Q85.2-2.6 81.82-1.15 78.45 0.3 74.75 0.3L74.75 0.3Q72.5 0.3 67.6 0.5L67.6 0.5Q64.95 0.65 63.85 0.65L63.85 0.65Q63.05 0.65 62.8 0.38 62.55 0.1 62.55-0.4L62.55-0.4 62.55-2.6 62.65-5.2Q62.85-9 62.85-10.85L62.85-10.85 62.75-17.1 62.7-23Q62.7-24.4 63-27.6L63-27.6Q63.2-29.9 63.2-30.35L63.2-30.35Q63.2-31.15 63.1-33.05L63.1-33.05 63-34.9Q63-35.55 63.9-35.55L63.9-35.55 64.65-35.5Q65.05-35.5 65.77-35.6 66.5-35.7 67.05-35.7L67.05-35.7Q67.8-35.7 68.2-35.65L68.2-35.65Q70-35.55 73.95-35.55L73.95-35.55Q83.05-35.55 83.05-26.8L83.05-26.8Q83.05-24.55 81.95-23.03 80.85-21.5 79.15-20.6L79.15-20.6Q77.5-19.65 75.25-19.2L75.25-19.2ZM64.55-28.5L64.45-25.45 64.35-23.5Q64.35-22.95 64.52-22.85 64.7-22.75 65.35-22.75L65.35-22.75 66.8-22.7Q68.2-22.6 68.85-22.6L68.85-22.6 70.5-22.65Q72.2-22.75 73.25-22.75L73.25-22.75Q78-22.75 78-26.55L78-26.55Q78-30.65 71.35-31.65L71.35-31.65Q69.5-31.95 67.25-31.95L67.25-31.95Q66.5-31.95 64.7-31.85L64.7-31.85 64.6-30.6Q64.55-29.85 64.55-28.5L64.55-28.5ZM73.3-2.95Q79.75-2.95 79.75-7.85L79.75-7.85Q79.75-10.45 78.67-12.05 77.6-13.65 76.3-14.38 75-15.1 74.15-15.2L74.15-15.2Q73.35-15.3 70.05-15.53 66.75-15.75 65.3-15.8L65.3-15.8Q64.5-15.8 64.3-15.68 64.1-15.55 64.1-15.2L64.1-15.2Q64.1-14.9 64.12-14.25 64.15-13.6 64.15-12.25L64.15-12.25Q64.15-11.35 64.05-9.75L64.05-9.75 64-7.75 63.95-4.25Q63.95-3.75 64.07-3.6 64.2-3.45 64.5-3.45L64.5-3.45 67.1-3.35Q67.85-3.35 69.65-3.15L69.65-3.15Q72.05-2.95 73.3-2.95L73.3-2.95ZM113.94-35Q116.99-35 120.44-33.38 123.89-31.75 126.49-27.45 129.09-23.15 129.09-15.75L129.09-15.75Q129.09-9 125.87-5.53 122.64-2.05 119.09-1.07 115.54-0.1 113.19-0.1L113.19-0.1 109.09-0.05Q107.99 0 106.39 0L106.39 0Q105.44 0 105.44-1.7L105.44-1.7 105.49-3 105.39-5.5 105.34-7.75 105.29-9.25Q105.09-11.85 105.09-15.15L105.09-15.15Q105.09-17.1 105.29-20.3L105.29-20.3Q105.49-23.5 105.49-25.55L105.49-25.55 105.44-32.25Q105.39-33.05 105.39-34.05L105.39-34.05Q105.39-34.6 106.12-34.73 106.84-34.85 107.64-34.83 108.44-34.8 108.74-34.8L108.74-34.8 110.54-34.9Q112.64-35 113.94-35L113.94-35ZM114.04-10.7Q115.39-11.35 116.54-12.5L116.54-12.5Q119.04-14.9 119.04-18.2L119.04-18.2Q119.04-21.35 116.64-23.25L116.64-23.25Q115.59-24.05 114.29-24.45L114.29-24.45Q114.39-23.35 114.39-22.75L114.39-22.75Q114.39-21.8 114.29-20L114.29-20Q114.19-18.3 114.19-17.5L114.19-17.5Q114.19-16.2 114.09-13.3L114.09-13.3Q114.04-12.45 114.04-10.7L114.04-10.7ZM154.94-33.25L154.94-32.7Q154.94-31.55 154.74-31.55L154.74-31.55Q154.44-31.55 154.06-31.63 153.69-31.7 153.14-31.7L153.14-31.7 145.14-31.7 138.94-31.75Q138.64-31.75 136.69-31.6L136.69-31.6 135.54-31.5 135.44-30.15Q135.39-29.4 135.39-27.8L135.39-27.8Q135.39-27 135.49-25.7L135.49-25.7Q135.59-24.5 135.59-23.95L135.59-23.95 135.59-21.95Q135.59-21.15 135.64-20.7L135.64-20.7Q136.09-20.65 136.99-20.65L136.99-20.65 138.99-20.65Q139.29-20.65 140.19-20.75L140.19-20.75Q141.49-20.85 142.44-20.85L142.44-20.85Q142.84-20.85 145.24-20.7L145.24-20.7 146.34-20.65Q146.74-20.65 147.49-20.73 148.24-20.8 148.94-20.8L148.94-20.8 150.59-20.75Q151.89-20.65 152.39-20.65L152.39-20.65Q152.94-20.65 153.14-20.7L153.14-20.7 153.44-20.75Q153.79-20.75 153.94-20.53 154.09-20.3 154.04-20.1L154.04-20.1Q153.99-19.75 153.99-19.23 153.99-18.7 153.94-18.3L153.94-18.3Q153.89-17.9 153.79-17.82 153.69-17.75 153.19-17.75L153.19-17.75 151.19-17.95Q147.44-18.3 146.29-18.3L146.29-18.3Q142.04-18.3 140.04-18.15L140.04-18.15Q139.24-18.05 138.29-18.05 137.34-18.05 137.09-18.05L137.09-18.05Q136.14-18.05 135.69-18.1L135.69-18.1 135.54-17.3Q135.44-16.4 135.44-15.7L135.44-15.7Q135.44-15.1 135.54-14.3L135.54-14.3Q135.64-13.5 135.64-12.9L135.64-12.9 135.69-6.95 135.64-4.45Q135.59-4 135.59-3.2L135.59-3.2Q136.24-3.15 137.49-3.15L137.49-3.15Q138.54-3.1 140.74-3.1L140.74-3.1 143.44-3.05Q144.29-3 146.04-3L146.04-3Q147.09-3 148.79-3.1L148.79-3.1 150.89-3.15Q152.09-3.15 152.89-3.1 153.69-3.05 154.09-3.05L154.09-3.05Q154.49-3.05 154.56-2.9 154.64-2.75 154.64-2.25L154.64-2.25Q154.64-1.9 154.59-1.53 154.54-1.15 154.54-0.7L154.54-0.7Q154.54-0.35 154.29-0.23 154.04-0.1 153.49-0.1L153.49-0.1Q152.94-0.1 152.59-0.15L152.59-0.15Q151.24-0.3 147.14-0.3L147.14-0.3Q144.64-0.3 143.54-0.25L143.54-0.25Q142.69-0.2 140.74-0.2L140.74-0.2 136.09-0.25Q135.29-0.3 134.19-0.3L134.19-0.3Q133.49-0.3 133.26-0.48 133.04-0.65 133.04-1.05L133.04-1.05 133.09-1.85Q133.14-2.05 133.14-2.3L133.14-2.3Q133.14-2.45 133.09-3.03 133.04-3.6 133.04-5.15L133.04-5.15Q133.04-6.65 132.94-10.05L132.94-10.05Q132.79-12.85 132.79-15.45L132.79-15.45Q132.79-16.55 133.04-21.8L133.04-21.8Q133.09-22.85 133.14-23.9 133.19-24.95 133.19-25.8L133.19-25.8Q133.19-31.6 133.04-33.45L133.04-33.45Q132.89-34.65 134.49-34.65L134.49-34.65Q134.89-34.65 135.79-34.55L135.79-34.55Q136.59-34.45 136.99-34.45L136.99-34.45 140.14-34.55Q143.54-34.75 145.39-34.75L145.39-34.75Q147.54-34.75 151.44-34.65L151.44-34.65Q152.69-34.6 154.09-34.6L154.09-34.6Q154.69-34.6 154.84-34.3 154.99-34 154.96-33.68 154.94-33.35 154.94-33.25L154.94-33.25ZM169.14-6.55Q169.49-7.6 170.21-9.58 170.94-11.55 171.39-12.55L171.39-12.55Q171.89-13.45 172.99-16.73 174.09-20 174.79-22.2L174.79-22.2 176.89-27.4Q177.94-29.85 178.14-30.45L178.14-30.45Q178.59-31.5 179.09-33.2L179.09-33.2 179.59-34.6Q179.69-35 179.86-35.1 180.04-35.2 180.39-35.05L180.39-35.05Q180.69-34.95 181.11-34.95 181.54-34.95 181.64-34.95L181.64-34.95Q181.94-34.95 181.94-34.8L181.94-34.8Q181.94-34.7 181.74-34.3L181.74-34.3Q180.74-31.65 180.04-30.45L180.04-30.45Q179.54-29.55 177.64-24.08 175.74-18.6 175.19-16.85L175.19-16.85Q175.14-16.75 172.89-10.45L172.89-10.45Q171.54-6.65 171.24-5.85L171.24-5.85Q170.69-4.5 170.06-2.73 169.44-0.95 169.34-0.75L169.34-0.75Q169.24-0.35 169.11-0.25 168.99-0.15 168.69-0.15L168.69-0.15Q168.44-0.15 168.34-0.23 168.24-0.3 168.21-0.4 168.19-0.5 168.14-0.55L168.14-0.55 167.34-3.05Q165.94-7.6 165.59-8.55L165.59-8.55 162.19-18.15Q162.24-18.05 160.89-22.3L160.89-22.3Q160.04-25.3 159.29-27.5L159.29-27.5Q159.04-28.05 158.19-31.35L158.19-31.35 157.54-33.9Q157.34-34.45 157.34-34.8L157.34-34.8Q157.34-35 157.44-35.05 157.54-35.1 157.64-35.13 157.74-35.15 157.79-35.15L157.79-35.15 159.54-35.15 159.69-35.15Q160.14-35.15 160.29-35 160.44-34.85 160.49-34.63 160.54-34.4 160.59-34.3L160.59-34.3Q160.89-33.6 161.54-30.7L161.54-30.7Q161.99-28.85 163.39-24.55L163.39-24.55Q163.64-23.75 164.36-21.5 165.09-19.25 165.34-18.2L165.34-18.2Q165.99-15.55 167.14-12.1L167.14-12.1 167.69-10.55Q168.29-8.65 168.74-7.45L168.74-7.45Q169.09-6.65 169.14-6.55L169.14-6.55ZM206.53-33.25L206.53-32.7Q206.53-31.55 206.33-31.55L206.33-31.55Q206.03-31.55 205.66-31.63 205.28-31.7 204.73-31.7L204.73-31.7 196.73-31.7 190.53-31.75Q190.23-31.75 188.28-31.6L188.28-31.6 187.13-31.5 187.03-30.15Q186.98-29.4 186.98-27.8L186.98-27.8Q186.98-27 187.08-25.7L187.08-25.7Q187.18-24.5 187.18-23.95L187.18-23.95 187.18-21.95Q187.18-21.15 187.23-20.7L187.23-20.7Q187.68-20.65 188.58-20.65L188.58-20.65 190.58-20.65Q190.88-20.65 191.78-20.75L191.78-20.75Q193.08-20.85 194.03-20.85L194.03-20.85Q194.43-20.85 196.83-20.7L196.83-20.7 197.93-20.65Q198.33-20.65 199.08-20.73 199.83-20.8 200.53-20.8L200.53-20.8 202.18-20.75Q203.48-20.65 203.98-20.65L203.98-20.65Q204.53-20.65 204.73-20.7L204.73-20.7 205.03-20.75Q205.38-20.75 205.53-20.53 205.68-20.3 205.63-20.1L205.63-20.1Q205.58-19.75 205.58-19.23 205.58-18.7 205.53-18.3L205.53-18.3Q205.48-17.9 205.38-17.82 205.28-17.75 204.78-17.75L204.78-17.75 202.78-17.95Q199.03-18.3 197.88-18.3L197.88-18.3Q193.63-18.3 191.63-18.15L191.63-18.15Q190.83-18.05 189.88-18.05 188.93-18.05 188.68-18.05L188.68-18.05Q187.73-18.05 187.28-18.1L187.28-18.1 187.13-17.3Q187.03-16.4 187.03-15.7L187.03-15.7Q187.03-15.1 187.13-14.3L187.13-14.3Q187.23-13.5 187.23-12.9L187.23-12.9 187.28-6.95 187.23-4.45Q187.18-4 187.18-3.2L187.18-3.2Q187.83-3.15 189.08-3.15L189.08-3.15Q190.13-3.1 192.33-3.1L192.33-3.1 195.03-3.05Q195.88-3 197.63-3L197.63-3Q198.68-3 200.38-3.1L200.38-3.1 202.48-3.15Q203.68-3.15 204.48-3.1 205.28-3.05 205.68-3.05L205.68-3.05Q206.08-3.05 206.16-2.9 206.23-2.75 206.23-2.25L206.23-2.25Q206.23-1.9 206.18-1.53 206.13-1.15 206.13-0.7L206.13-0.7Q206.13-0.35 205.88-0.23 205.63-0.1 205.08-0.1L205.08-0.1Q204.53-0.1 204.18-0.15L204.18-0.15Q202.83-0.3 198.73-0.3L198.73-0.3Q196.23-0.3 195.13-0.25L195.13-0.25Q194.28-0.2 192.33-0.2L192.33-0.2 187.68-0.25Q186.88-0.3 185.78-0.3L185.78-0.3Q185.08-0.3 184.86-0.48 184.63-0.65 184.63-1.05L184.63-1.05 184.68-1.85Q184.73-2.05 184.73-2.3L184.73-2.3Q184.73-2.45 184.68-3.03 184.63-3.6 184.63-5.15L184.63-5.15Q184.63-6.65 184.53-10.05L184.53-10.05Q184.38-12.85 184.38-15.45L184.38-15.45Q184.38-16.55 184.63-21.8L184.63-21.8Q184.68-22.85 184.73-23.9 184.78-24.95 184.78-25.8L184.78-25.8Q184.78-31.6 184.63-33.45L184.63-33.45Q184.48-34.65 186.08-34.65L186.08-34.65Q186.48-34.65 187.38-34.55L187.38-34.55Q188.18-34.45 188.58-34.45L188.58-34.45 191.73-34.55Q195.13-34.75 196.98-34.75L196.98-34.75Q199.13-34.75 203.03-34.65L203.03-34.65Q204.28-34.6 205.68-34.6L205.68-34.6Q206.28-34.6 206.43-34.3 206.58-34 206.56-33.68 206.53-33.35 206.53-33.25L206.53-33.25ZM215.48-34.6L215.38-31.7Q215.13-24.7 215.13-24.1L215.13-24.1 215.08-16.95Q215.08-16 215.13-15.3L215.13-15.3 215.18-12.3Q215.18-11.25 215.13-11L215.13-11Q215.08-10.7 215.11-10.45 215.13-10.2 215.13-10.1L215.13-10.1Q215.13-9.9 215.18-9.85L215.18-9.85 216.38-9.75Q217.98-9.65 219.03-9.7L219.03-9.7 228.28-9.8Q228.28-9.8 233.53-9.65L233.53-9.65 235.88-9.6Q236.43-9.55 236.43-9.3L236.43-9.3Q236.43-9.2 236.38-9.05 236.33-8.9 236.33-8.75L236.33-8.75 236.33-6.45Q236.33-5.55 236.63-2.65L236.63-2.65 236.83-0.55 236.88-0.3Q236.88-0.05 236.63 0.03 236.38 0.1 235.73 0.1L235.73 0.1 232.08 0.05 225.88-0.05Q224.63-0.05 222.38 0.1L222.38 0.1Q221.38 0.15 220.16 0.2 218.93 0.25 217.73 0.25L217.73 0.25 216.88 0.2Q216.58 0.15 215.73 0.15L215.73 0.15 213.48 0.2Q212.88 0.25 211.93 0.25L211.93 0.25Q211.28 0.25 211.16 0.08 211.03-0.1 211.06-0.45 211.08-0.8 211.08-1.05L211.08-1.05Q211.08-2.15 211.23-4.85L211.23-4.85 211.38-10 211.28-12.35Q211.23-13.05 211.18-14.03 211.13-15 211.13-16.05L211.13-16.05Q211.13-14.35 211.43-19.48 211.73-24.6 211.73-25.8L211.73-25.8 211.68-31.45 211.58-34.65 211.58-34.7Q211.58-35.1 212.13-35.1L212.13-35.1 212.83-35.05Q213.08-35.05 213.48-35.02 213.88-35 214.73-35L214.73-35 215.18-35Q215.48-35 215.48-34.6L215.48-34.6ZM258.78-34.9Q261.78-32.9 263.6-29.5 265.43-26.1 266.15-22.88 266.88-19.65 266.88-17.8L266.88-17.8Q266.88-14.7 265.9-10.6 264.93-6.5 261.73-2.98 258.53 0.55 252.48 0.55L252.48 0.55Q244.18 0.55 240.68-9.1L240.68-9.1Q239.13-13.45 238.93-18.8L238.93-18.8Q238.93-23.2 240.78-27.18 242.63-31.15 245.65-33.55 248.68-35.95 251.88-35.95L251.88-35.95Q254.78-35.95 256.2-35.8 257.63-35.65 258.78-34.9L258.78-34.9ZM252.23-2.25Q257.53-2.25 260.13-6.68 262.73-11.1 262.73-17.8L262.73-17.8Q262.73-21.9 261.5-25.38 260.28-28.85 258.05-30.93 255.83-33 252.93-33L252.93-33Q252.68-33 251.6-33 250.53-33 249.73-32.65 248.93-32.3 248.28-31.6L248.28-31.6Q246.63-29.95 245.5-28.58 244.38-27.2 243.25-24.5 242.13-21.8 242.13-18.25L242.13-18.25Q242.13-14.05 243.15-10.43 244.18-6.8 246.43-4.53 248.68-2.25 252.23-2.25L252.23-2.25ZM293.33-32.55Q293.53-32.3 294.45-31.2 295.38-30.1 295.88-28.75 296.38-27.4 296.38-25.85L296.38-25.85Q296.38-21.7 293.95-19.2 291.53-16.7 287.83-15.4L287.83-15.4Q283.83-14.05 279.28-14L279.28-14 279.18-8.55 279.08-1.5Q279.08 0 277.88 0L277.88 0Q277.58 0 277.28-0.05 276.98-0.1 276.78-0.1L276.78-0.1 274.88 0 272.93 0.1Q272.38 0.1 272.18-0.3 271.98-0.7 271.98-1.5L271.98-1.5Q271.98-1.75 272-2.45 272.03-3.15 272.03-4.55L272.03-4.55Q272.18-12.2 272.18-12.3L272.18-12.3 272.18-26Q272.18-28 272.38-30.35L272.38-30.35 272.58-33.65Q272.58-34.45 272.75-34.58 272.93-34.7 273.53-34.7L273.53-34.7Q273.93-34.7 275.93-34.9L275.93-34.9Q278.53-35.2 280.08-35.2L280.08-35.2Q284.28-35.2 286.5-35.08 288.73-34.95 290.5-34.38 292.28-33.8 293.33-32.55L293.33-32.55ZM289.13-18Q290.93-18.85 291.78-20.28 292.63-21.7 292.63-24.1L292.63-24.1Q292.63-26 292.23-28.05L292.23-28.05Q291.83-30.1 289.98-31.2 288.13-32.3 285.53-32.65L285.53-32.65Q284.18-32.85 282.33-32.85L282.33-32.85Q281.53-32.85 279.63-32.75L279.63-32.75 279.33-16.6Q281.28-16.55 283.08-16.75L283.08-16.75Q287.18-17.05 289.13-18L289.13-18ZM320.72-33.25L320.72-32.7Q320.72-31.55 320.52-31.55L320.52-31.55Q320.22-31.55 319.85-31.63 319.47-31.7 318.92-31.7L318.92-31.7 310.92-31.7 304.72-31.75Q304.42-31.75 302.47-31.6L302.47-31.6 301.32-31.5 301.22-30.15Q301.17-29.4 301.17-27.8L301.17-27.8Q301.17-27 301.27-25.7L301.27-25.7Q301.37-24.5 301.37-23.95L301.37-23.95 301.37-21.95Q301.37-21.15 301.42-20.7L301.42-20.7Q301.87-20.65 302.77-20.65L302.77-20.65 304.77-20.65Q305.07-20.65 305.97-20.75L305.97-20.75Q307.27-20.85 308.22-20.85L308.22-20.85Q308.62-20.85 311.02-20.7L311.02-20.7 312.12-20.65Q312.52-20.65 313.27-20.73 314.02-20.8 314.72-20.8L314.72-20.8 316.37-20.75Q317.67-20.65 318.17-20.65L318.17-20.65Q318.72-20.65 318.92-20.7L318.92-20.7 319.22-20.75Q319.57-20.75 319.72-20.53 319.87-20.3 319.82-20.1L319.82-20.1Q319.77-19.75 319.77-19.23 319.77-18.7 319.72-18.3L319.72-18.3Q319.67-17.9 319.57-17.82 319.47-17.75 318.97-17.75L318.97-17.75 316.97-17.95Q313.22-18.3 312.07-18.3L312.07-18.3Q307.82-18.3 305.82-18.15L305.82-18.15Q305.02-18.05 304.07-18.05 303.12-18.05 302.87-18.05L302.87-18.05Q301.92-18.05 301.47-18.1L301.47-18.1 301.32-17.3Q301.22-16.4 301.22-15.7L301.22-15.7Q301.22-15.1 301.32-14.3L301.32-14.3Q301.42-13.5 301.42-12.9L301.42-12.9 301.47-6.95 301.42-4.45Q301.37-4 301.37-3.2L301.37-3.2Q302.02-3.15 303.27-3.15L303.27-3.15Q304.32-3.1 306.52-3.1L306.52-3.1 309.22-3.05Q310.07-3 311.82-3L311.82-3Q312.87-3 314.57-3.1L314.57-3.1 316.67-3.15Q317.87-3.15 318.67-3.1 319.47-3.05 319.87-3.05L319.87-3.05Q320.27-3.05 320.35-2.9 320.42-2.75 320.42-2.25L320.42-2.25Q320.42-1.9 320.37-1.53 320.32-1.15 320.32-0.7L320.32-0.7Q320.32-0.35 320.07-0.23 319.82-0.1 319.27-0.1L319.27-0.1Q318.72-0.1 318.37-0.15L318.37-0.15Q317.02-0.3 312.92-0.3L312.92-0.3Q310.42-0.3 309.32-0.25L309.32-0.25Q308.47-0.2 306.52-0.2L306.52-0.2 301.87-0.25Q301.07-0.3 299.97-0.3L299.97-0.3Q299.27-0.3 299.05-0.48 298.82-0.65 298.82-1.05L298.82-1.05 298.87-1.85Q298.92-2.05 298.92-2.3L298.92-2.3Q298.92-2.45 298.87-3.03 298.82-3.6 298.82-5.15L298.82-5.15Q298.82-6.65 298.72-10.05L298.72-10.05Q298.57-12.85 298.57-15.45L298.57-15.45Q298.57-16.55 298.82-21.8L298.82-21.8Q298.87-22.85 298.92-23.9 298.97-24.95 298.97-25.8L298.97-25.8Q298.97-31.6 298.82-33.45L298.82-33.45Q298.67-34.65 300.27-34.65L300.27-34.65Q300.67-34.65 301.57-34.55L301.57-34.55Q302.37-34.45 302.77-34.45L302.77-34.45 305.92-34.55Q309.32-34.75 311.17-34.75L311.17-34.75Q313.32-34.75 317.22-34.65L317.22-34.65Q318.47-34.6 319.87-34.6L319.87-34.6Q320.47-34.6 320.62-34.3 320.77-34 320.75-33.68 320.72-33.35 320.72-33.25L320.72-33.25ZM347.92-2.05Q349.27-0.7 349.27-0.2L349.27-0.2Q349.27-0.1 349.02 0.15L349.02 0.15Q348.57 0.45 346.77 0.45L346.77 0.45Q345.47 0.45 345.12 0.28 344.77 0.1 344.6-0.3 344.42-0.7 344.32-0.9L344.32-0.9Q344.17-1.2 343.1-2.63 342.02-4.05 341.47-4.8L341.47-4.8Q338.82-8.2 336.87-10.95L336.87-10.95Q335.67-12.65 332.42-16.8L332.42-16.8 331.62-17.8 328.17-22.1 327.97-20.1Q327.77-18.6 327.87-16.5L327.87-16.5Q328.02-15.1 328.07-9.25 328.12-3.4 328.12-0.7L328.12-0.7Q328.12 0.1 327.52 0.33 326.92 0.55 326.12 0.55L326.12 0.55Q325.77 0.55 325.67 0.25 325.57-0.05 325.55-0.4 325.52-0.75 325.52-0.85L325.52-0.85Q325.42-1.65 325.42-3.2L325.42-3.2Q325.42-4.2 325.47-4.7L325.47-4.7Q325.52-7.4 325.62-14.13 325.72-20.85 325.72-26.2L325.72-26.2Q325.72-31.95 325.57-32.9L325.57-32.9Q325.52-33.3 325.52-33.95L325.52-33.95Q325.52-34.7 325.75-34.9 325.97-35.1 326.42-35.1L326.42-35.1Q327.42-35.1 328.37-35.05L328.37-35.05 333.82-34.95Q336.82-34.95 340.07-33.9 343.32-32.85 343.32-30L343.32-30Q343.32-27.3 341.32-25.8 339.32-24.3 336.85-23.75 334.37-23.2 332.52-23.2L332.52-23.2Q331.87-23.2 331.82-23.25L331.82-23.25Q332.12-22.95 335.77-17.95L335.77-17.95Q346.77-3.2 347.92-2.05L347.92-2.05ZM328.02-25.25Q329.67-25.25 330.52-25.3L330.52-25.3Q333.42-25.4 335.02-25.7L335.02-25.7Q337.32-26.1 338.5-26.8 339.67-27.5 339.67-29L339.67-29Q339.67-30 338.62-30.73 337.57-31.45 336.1-31.83 334.62-32.2 333.52-32.2L333.52-32.2Q332.27-32.25 330.02-32.25L330.02-32.25 328.32-32.25 328.02-25.25Z" opacity="1" transform="matrix(1,0,0,1,0,0)" fill="black" class="wordmark-text-0" id="SvgjsPath1315" stroke-width="4" stroke="black" stroke-linejoin="round"></path></svg></g></svg></g></svg></g></svg></g><g></g></svg></g></svg></g></svg></g></mask><g transform="matrix(1,0,0,1,0,100.78369991474851)"><svg viewBox="0 0 395.52 45.632600170502975" height="45.632600170502975" width="395.52"><g><svg viewBox="0 0 395.52 45.632600170502975" height="45.632600170502975" width="395.52"><g><svg viewBox="0 0 395.52 45.632600170502975" height="45.632600170502975" width="395.52"><g><svg viewBox="0 0 395.52 45.632600170502975" height="45.632600170502975" width="395.52"><g id="textblocktransform"><svg viewBox="0 0 395.52 45.632600170502975" height="45.632600170502975" width="395.52" id="textblock"><g><svg viewBox="0 0 395.52 45.632600170502975" height="45.632600170502975" width="395.52"><g transform="matrix(1,0,0,1,0,0)"><svg width="395.52" viewBox="-1.100000023841858 -38.45000076293945 352.8699951171875 41.60000228881836" height="45.632600170502975" data-palette-color="#6e5f5f"><path d="M11.8-16.55L12-17.2 12.5-18.6Q12.85-19.45 13.7-22.7L13.7-22.7 14.05-24Q14.25-24.75 14.95-26.85 15.65-28.95 16.05-30.1L16.05-30.1Q16.3-30.65 16.65-31.75L16.65-31.75Q17.95-35.05 18.55-35.05L18.55-35.05Q18.9-35.05 19-34.95 19.1-34.85 19.15-34.6 19.2-34.35 19.25-34.2L19.25-34.2Q19.35-33.8 19.5-33.27 19.65-32.75 19.75-32.1L19.75-32.1Q21.75-26.9 22.15-25.9L22.15-25.9 23.7-22.55 24.6-20.55Q24.7-20.85 24.8-21L24.8-21 25.3-22.25Q25.4-22.55 25.7-24.3L25.7-24.3Q26.05-26.5 26.3-27.45L26.3-27.45Q26.55-28.4 27.2-30.2L27.2-30.2Q27.95-32.4 28.05-33.15L28.05-33.15Q28.25-34.9 29.25-34.9L29.25-34.9Q30.05-35.1 31.05-35.1L31.05-35.1Q31.55-35.1 31.7-35.05L31.7-35.05Q32.3-35.05 32.3-34.6L32.3-34.6 32.2-34 31.75-32.6Q31.4-31.25 31.15-30.55L31.15-30.55Q30.9-29.65 30.55-28.4 30.2-27.15 29.85-25.85L29.85-25.85Q29.1-22.9 28.55-21.05L28.55-21.05Q28.25-19.85 27.9-17.53 27.55-15.2 27.55-14.8L27.55-14.8Q27.55-13.6 26.85-11.9L26.85-11.9Q26.6-11.15 26.1-8.6 25.6-6.05 25.45-5.15L25.45-5.15Q24.95-1.85 24.75-1.5L24.75-1.5Q24.7-1.2 24.63-0.78 24.55-0.35 24.48-0.15 24.4 0.05 24.25 0.05L24.25 0.05Q23.85 0.05 23.68-0.15 23.5-0.35 23.2-1L23.2-1Q22.8-1.5 21.15-5.85L21.15-5.85Q20.8-6.75 19.05-11.7L19.05-11.7Q18.75-12.75 18.05-14.55L18.05-14.55 17.35-16.4 16.65-15Q16.15-13.9 15.15-11.3L15.15-11.3 14.75-10.3Q14.15-8.55 12.85-3.15L12.85-3.15 12.5-1.7Q12.35-1.1 12.03-0.53 11.7 0.05 11.45 0.05L11.45 0.05Q11.1 0.05 10.93-0.2 10.75-0.45 10.6-1L10.6-1Q10.4-1.4 9.9-3.85L9.9-3.85Q9.7-4.65 9.3-6.28 8.9-7.9 8.7-8.4L8.7-8.4Q8.25-9.5 7.65-11.63 7.05-13.75 6.95-14.15L6.95-14.15Q6.55-15.1 4.65-22.2L4.65-22.2Q4.35-23.15 4.1-24.08 3.85-25 3.65-25.7L3.65-25.7 2.7-29.25 1.6-33.3Q1.4-33.95 1.4-34.3L1.4-34.3Q1.4-34.45 1.5-34.5 1.6-34.55 1.75-34.55L1.75-34.55 3.3-34.55Q4.15-34.55 4.5-34.6L4.5-34.6 5.05-34.7Q5.55-34.85 5.73-34.55 5.9-34.25 6.1-33.3L6.1-33.3Q6.2-32.9 7.1-29.78 8-26.65 9.2-23.65L9.2-23.65Q10.15-20.7 10.95-18.75L10.95-18.75 11.8-16.55ZM57.95-33.25L57.95-32.7Q57.95-31.55 57.75-31.55L57.75-31.55Q57.45-31.55 57.07-31.63 56.7-31.7 56.15-31.7L56.15-31.7 48.15-31.7 41.95-31.75Q41.65-31.75 39.7-31.6L39.7-31.6 38.55-31.5 38.45-30.15Q38.4-29.4 38.4-27.8L38.4-27.8Q38.4-27 38.5-25.7L38.5-25.7Q38.6-24.5 38.6-23.95L38.6-23.95 38.6-21.95Q38.6-21.15 38.65-20.7L38.65-20.7Q39.1-20.65 40-20.65L40-20.65 42-20.65Q42.3-20.65 43.2-20.75L43.2-20.75Q44.5-20.85 45.45-20.85L45.45-20.85Q45.85-20.85 48.25-20.7L48.25-20.7 49.35-20.65Q49.75-20.65 50.5-20.73 51.25-20.8 51.95-20.8L51.95-20.8 53.6-20.75Q54.9-20.65 55.4-20.65L55.4-20.65Q55.95-20.65 56.15-20.7L56.15-20.7 56.45-20.75Q56.8-20.75 56.95-20.53 57.1-20.3 57.05-20.1L57.05-20.1Q57-19.75 57-19.23 57-18.7 56.95-18.3L56.95-18.3Q56.9-17.9 56.8-17.82 56.7-17.75 56.2-17.75L56.2-17.75 54.2-17.95Q50.45-18.3 49.3-18.3L49.3-18.3Q45.05-18.3 43.05-18.15L43.05-18.15Q42.25-18.05 41.3-18.05 40.35-18.05 40.1-18.05L40.1-18.05Q39.15-18.05 38.7-18.1L38.7-18.1 38.55-17.3Q38.45-16.4 38.45-15.7L38.45-15.7Q38.45-15.1 38.55-14.3L38.55-14.3Q38.65-13.5 38.65-12.9L38.65-12.9 38.7-6.95 38.65-4.45Q38.6-4 38.6-3.2L38.6-3.2Q39.25-3.15 40.5-3.15L40.5-3.15Q41.55-3.1 43.75-3.1L43.75-3.1 46.45-3.05Q47.3-3 49.05-3L49.05-3Q50.1-3 51.8-3.1L51.8-3.1 53.9-3.15Q55.1-3.15 55.9-3.1 56.7-3.05 57.1-3.05L57.1-3.05Q57.5-3.05 57.57-2.9 57.65-2.75 57.65-2.25L57.65-2.25Q57.65-1.9 57.6-1.53 57.55-1.15 57.55-0.7L57.55-0.7Q57.55-0.35 57.3-0.23 57.05-0.1 56.5-0.1L56.5-0.1Q55.95-0.1 55.6-0.15L55.6-0.15Q54.25-0.3 50.15-0.3L50.15-0.3Q47.65-0.3 46.55-0.25L46.55-0.25Q45.7-0.2 43.75-0.2L43.75-0.2 39.1-0.25Q38.3-0.3 37.2-0.3L37.2-0.3Q36.5-0.3 36.27-0.48 36.05-0.65 36.05-1.05L36.05-1.05 36.1-1.85Q36.15-2.05 36.15-2.3L36.15-2.3Q36.15-2.45 36.1-3.03 36.05-3.6 36.05-5.15L36.05-5.15Q36.05-6.65 35.95-10.05L35.95-10.05Q35.8-12.85 35.8-15.45L35.8-15.45Q35.8-16.55 36.05-21.8L36.05-21.8Q36.1-22.85 36.15-23.9 36.2-24.95 36.2-25.8L36.2-25.8Q36.2-31.6 36.05-33.45L36.05-33.45Q35.9-34.65 37.5-34.65L37.5-34.65Q37.9-34.65 38.8-34.55L38.8-34.55Q39.6-34.45 40-34.45L40-34.45 43.15-34.55Q46.55-34.75 48.4-34.75L48.4-34.75Q50.55-34.75 54.45-34.65L54.45-34.65Q55.7-34.6 57.1-34.6L57.1-34.6Q57.7-34.6 57.85-34.3 58-34 57.97-33.68 57.95-33.35 57.95-33.25L57.95-33.25ZM75.25-19.2Q78.05-18.9 80.2-17.55L80.2-17.55Q85.2-14.4 85.2-7L85.2-7Q85.2-2.6 81.82-1.15 78.45 0.3 74.75 0.3L74.75 0.3Q72.5 0.3 67.6 0.5L67.6 0.5Q64.95 0.65 63.85 0.65L63.85 0.65Q63.05 0.65 62.8 0.38 62.55 0.1 62.55-0.4L62.55-0.4 62.55-2.6 62.65-5.2Q62.85-9 62.85-10.85L62.85-10.85 62.75-17.1 62.7-23Q62.7-24.4 63-27.6L63-27.6Q63.2-29.9 63.2-30.35L63.2-30.35Q63.2-31.15 63.1-33.05L63.1-33.05 63-34.9Q63-35.55 63.9-35.55L63.9-35.55 64.65-35.5Q65.05-35.5 65.77-35.6 66.5-35.7 67.05-35.7L67.05-35.7Q67.8-35.7 68.2-35.65L68.2-35.65Q70-35.55 73.95-35.55L73.95-35.55Q83.05-35.55 83.05-26.8L83.05-26.8Q83.05-24.55 81.95-23.03 80.85-21.5 79.15-20.6L79.15-20.6Q77.5-19.65 75.25-19.2L75.25-19.2ZM64.55-28.5L64.45-25.45 64.35-23.5Q64.35-22.95 64.52-22.85 64.7-22.75 65.35-22.75L65.35-22.75 66.8-22.7Q68.2-22.6 68.85-22.6L68.85-22.6 70.5-22.65Q72.2-22.75 73.25-22.75L73.25-22.75Q78-22.75 78-26.55L78-26.55Q78-30.65 71.35-31.65L71.35-31.65Q69.5-31.95 67.25-31.95L67.25-31.95Q66.5-31.95 64.7-31.85L64.7-31.85 64.6-30.6Q64.55-29.85 64.55-28.5L64.55-28.5ZM73.3-2.95Q79.75-2.95 79.75-7.85L79.75-7.85Q79.75-10.45 78.67-12.05 77.6-13.65 76.3-14.38 75-15.1 74.15-15.2L74.15-15.2Q73.35-15.3 70.05-15.53 66.75-15.75 65.3-15.8L65.3-15.8Q64.5-15.8 64.3-15.68 64.1-15.55 64.1-15.2L64.1-15.2Q64.1-14.9 64.12-14.25 64.15-13.6 64.15-12.25L64.15-12.25Q64.15-11.35 64.05-9.75L64.05-9.75 64-7.75 63.95-4.25Q63.95-3.75 64.07-3.6 64.2-3.45 64.5-3.45L64.5-3.45 67.1-3.35Q67.85-3.35 69.65-3.15L69.65-3.15Q72.05-2.95 73.3-2.95L73.3-2.95ZM113.94-35Q116.99-35 120.44-33.38 123.89-31.75 126.49-27.45 129.09-23.15 129.09-15.75L129.09-15.75Q129.09-9 125.87-5.53 122.64-2.05 119.09-1.07 115.54-0.1 113.19-0.1L113.19-0.1 109.09-0.05Q107.99 0 106.39 0L106.39 0Q105.44 0 105.44-1.7L105.44-1.7 105.49-3 105.39-5.5 105.34-7.75 105.29-9.25Q105.09-11.85 105.09-15.15L105.09-15.15Q105.09-17.1 105.29-20.3L105.29-20.3Q105.49-23.5 105.49-25.55L105.49-25.55 105.44-32.25Q105.39-33.05 105.39-34.05L105.39-34.05Q105.39-34.6 106.12-34.73 106.84-34.85 107.64-34.83 108.44-34.8 108.74-34.8L108.74-34.8 110.54-34.9Q112.64-35 113.94-35L113.94-35ZM114.04-10.7Q115.39-11.35 116.54-12.5L116.54-12.5Q119.04-14.9 119.04-18.2L119.04-18.2Q119.04-21.35 116.64-23.25L116.64-23.25Q115.59-24.05 114.29-24.45L114.29-24.45Q114.39-23.35 114.39-22.75L114.39-22.75Q114.39-21.8 114.29-20L114.29-20Q114.19-18.3 114.19-17.5L114.19-17.5Q114.19-16.2 114.09-13.3L114.09-13.3Q114.04-12.45 114.04-10.7L114.04-10.7ZM154.94-33.25L154.94-32.7Q154.94-31.55 154.74-31.55L154.74-31.55Q154.44-31.55 154.06-31.63 153.69-31.7 153.14-31.7L153.14-31.7 145.14-31.7 138.94-31.75Q138.64-31.75 136.69-31.6L136.69-31.6 135.54-31.5 135.44-30.15Q135.39-29.4 135.39-27.8L135.39-27.8Q135.39-27 135.49-25.7L135.49-25.7Q135.59-24.5 135.59-23.95L135.59-23.95 135.59-21.95Q135.59-21.15 135.64-20.7L135.64-20.7Q136.09-20.65 136.99-20.65L136.99-20.65 138.99-20.65Q139.29-20.65 140.19-20.75L140.19-20.75Q141.49-20.85 142.44-20.85L142.44-20.85Q142.84-20.85 145.24-20.7L145.24-20.7 146.34-20.65Q146.74-20.65 147.49-20.73 148.24-20.8 148.94-20.8L148.94-20.8 150.59-20.75Q151.89-20.65 152.39-20.65L152.39-20.65Q152.94-20.65 153.14-20.7L153.14-20.7 153.44-20.75Q153.79-20.75 153.94-20.53 154.09-20.3 154.04-20.1L154.04-20.1Q153.99-19.75 153.99-19.23 153.99-18.7 153.94-18.3L153.94-18.3Q153.89-17.9 153.79-17.82 153.69-17.75 153.19-17.75L153.19-17.75 151.19-17.95Q147.44-18.3 146.29-18.3L146.29-18.3Q142.04-18.3 140.04-18.15L140.04-18.15Q139.24-18.05 138.29-18.05 137.34-18.05 137.09-18.05L137.09-18.05Q136.14-18.05 135.69-18.1L135.69-18.1 135.54-17.3Q135.44-16.4 135.44-15.7L135.44-15.7Q135.44-15.1 135.54-14.3L135.54-14.3Q135.64-13.5 135.64-12.9L135.64-12.9 135.69-6.95 135.64-4.45Q135.59-4 135.59-3.2L135.59-3.2Q136.24-3.15 137.49-3.15L137.49-3.15Q138.54-3.1 140.74-3.1L140.74-3.1 143.44-3.05Q144.29-3 146.04-3L146.04-3Q147.09-3 148.79-3.1L148.79-3.1 150.89-3.15Q152.09-3.15 152.89-3.1 153.69-3.05 154.09-3.05L154.09-3.05Q154.49-3.05 154.56-2.9 154.64-2.75 154.64-2.25L154.64-2.25Q154.64-1.9 154.59-1.53 154.54-1.15 154.54-0.7L154.54-0.7Q154.54-0.35 154.29-0.23 154.04-0.1 153.49-0.1L153.49-0.1Q152.94-0.1 152.59-0.15L152.59-0.15Q151.24-0.3 147.14-0.3L147.14-0.3Q144.64-0.3 143.54-0.25L143.54-0.25Q142.69-0.2 140.74-0.2L140.74-0.2 136.09-0.25Q135.29-0.3 134.19-0.3L134.19-0.3Q133.49-0.3 133.26-0.48 133.04-0.65 133.04-1.05L133.04-1.05 133.09-1.85Q133.14-2.05 133.14-2.3L133.14-2.3Q133.14-2.45 133.09-3.03 133.04-3.6 133.04-5.15L133.04-5.15Q133.04-6.65 132.94-10.05L132.94-10.05Q132.79-12.85 132.79-15.45L132.79-15.45Q132.79-16.55 133.04-21.8L133.04-21.8Q133.09-22.85 133.14-23.9 133.19-24.95 133.19-25.8L133.19-25.8Q133.19-31.6 133.04-33.45L133.04-33.45Q132.89-34.65 134.49-34.65L134.49-34.65Q134.89-34.65 135.79-34.55L135.79-34.55Q136.59-34.45 136.99-34.45L136.99-34.45 140.14-34.55Q143.54-34.75 145.39-34.75L145.39-34.75Q147.54-34.75 151.44-34.65L151.44-34.65Q152.69-34.6 154.09-34.6L154.09-34.6Q154.69-34.6 154.84-34.3 154.99-34 154.96-33.68 154.94-33.35 154.94-33.25L154.94-33.25ZM169.14-6.55Q169.49-7.6 170.21-9.58 170.94-11.55 171.39-12.55L171.39-12.55Q171.89-13.45 172.99-16.73 174.09-20 174.79-22.2L174.79-22.2 176.89-27.4Q177.94-29.85 178.14-30.45L178.14-30.45Q178.59-31.5 179.09-33.2L179.09-33.2 179.59-34.6Q179.69-35 179.86-35.1 180.04-35.2 180.39-35.05L180.39-35.05Q180.69-34.95 181.11-34.95 181.54-34.95 181.64-34.95L181.64-34.95Q181.94-34.95 181.94-34.8L181.94-34.8Q181.94-34.7 181.74-34.3L181.74-34.3Q180.74-31.65 180.04-30.45L180.04-30.45Q179.54-29.55 177.64-24.08 175.74-18.6 175.19-16.85L175.19-16.85Q175.14-16.75 172.89-10.45L172.89-10.45Q171.54-6.65 171.24-5.85L171.24-5.85Q170.69-4.5 170.06-2.73 169.44-0.95 169.34-0.75L169.34-0.75Q169.24-0.35 169.11-0.25 168.99-0.15 168.69-0.15L168.69-0.15Q168.44-0.15 168.34-0.23 168.24-0.3 168.21-0.4 168.19-0.5 168.14-0.55L168.14-0.55 167.34-3.05Q165.94-7.6 165.59-8.55L165.59-8.55 162.19-18.15Q162.24-18.05 160.89-22.3L160.89-22.3Q160.04-25.3 159.29-27.5L159.29-27.5Q159.04-28.05 158.19-31.35L158.19-31.35 157.54-33.9Q157.34-34.45 157.34-34.8L157.34-34.8Q157.34-35 157.44-35.05 157.54-35.1 157.64-35.13 157.74-35.15 157.79-35.15L157.79-35.15 159.54-35.15 159.69-35.15Q160.14-35.15 160.29-35 160.44-34.85 160.49-34.63 160.54-34.4 160.59-34.3L160.59-34.3Q160.89-33.6 161.54-30.7L161.54-30.7Q161.99-28.85 163.39-24.55L163.39-24.55Q163.64-23.75 164.36-21.5 165.09-19.25 165.34-18.2L165.34-18.2Q165.99-15.55 167.14-12.1L167.14-12.1 167.69-10.55Q168.29-8.65 168.74-7.45L168.74-7.45Q169.09-6.65 169.14-6.55L169.14-6.55ZM206.53-33.25L206.53-32.7Q206.53-31.55 206.33-31.55L206.33-31.55Q206.03-31.55 205.66-31.63 205.28-31.7 204.73-31.7L204.73-31.7 196.73-31.7 190.53-31.75Q190.23-31.75 188.28-31.6L188.28-31.6 187.13-31.5 187.03-30.15Q186.98-29.4 186.98-27.8L186.98-27.8Q186.98-27 187.08-25.7L187.08-25.7Q187.18-24.5 187.18-23.95L187.18-23.95 187.18-21.95Q187.18-21.15 187.23-20.7L187.23-20.7Q187.68-20.65 188.58-20.65L188.58-20.65 190.58-20.65Q190.88-20.65 191.78-20.75L191.78-20.75Q193.08-20.85 194.03-20.85L194.03-20.85Q194.43-20.85 196.83-20.7L196.83-20.7 197.93-20.65Q198.33-20.65 199.08-20.73 199.83-20.8 200.53-20.8L200.53-20.8 202.18-20.75Q203.48-20.65 203.98-20.65L203.98-20.65Q204.53-20.65 204.73-20.7L204.73-20.7 205.03-20.75Q205.38-20.75 205.53-20.53 205.68-20.3 205.63-20.1L205.63-20.1Q205.58-19.75 205.58-19.23 205.58-18.7 205.53-18.3L205.53-18.3Q205.48-17.9 205.38-17.82 205.28-17.75 204.78-17.75L204.78-17.75 202.78-17.95Q199.03-18.3 197.88-18.3L197.88-18.3Q193.63-18.3 191.63-18.15L191.63-18.15Q190.83-18.05 189.88-18.05 188.93-18.05 188.68-18.05L188.68-18.05Q187.73-18.05 187.28-18.1L187.28-18.1 187.13-17.3Q187.03-16.4 187.03-15.7L187.03-15.7Q187.03-15.1 187.13-14.3L187.13-14.3Q187.23-13.5 187.23-12.9L187.23-12.9 187.28-6.95 187.23-4.45Q187.18-4 187.18-3.2L187.18-3.2Q187.83-3.15 189.08-3.15L189.08-3.15Q190.13-3.1 192.33-3.1L192.33-3.1 195.03-3.05Q195.88-3 197.63-3L197.63-3Q198.68-3 200.38-3.1L200.38-3.1 202.48-3.15Q203.68-3.15 204.48-3.1 205.28-3.05 205.68-3.05L205.68-3.05Q206.08-3.05 206.16-2.9 206.23-2.75 206.23-2.25L206.23-2.25Q206.23-1.9 206.18-1.53 206.13-1.15 206.13-0.7L206.13-0.7Q206.13-0.35 205.88-0.23 205.63-0.1 205.08-0.1L205.08-0.1Q204.53-0.1 204.18-0.15L204.18-0.15Q202.83-0.3 198.73-0.3L198.73-0.3Q196.23-0.3 195.13-0.25L195.13-0.25Q194.28-0.2 192.33-0.2L192.33-0.2 187.68-0.25Q186.88-0.3 185.78-0.3L185.78-0.3Q185.08-0.3 184.86-0.48 184.63-0.65 184.63-1.05L184.63-1.05 184.68-1.85Q184.73-2.05 184.73-2.3L184.73-2.3Q184.73-2.45 184.68-3.03 184.63-3.6 184.63-5.15L184.63-5.15Q184.63-6.65 184.53-10.05L184.53-10.05Q184.38-12.85 184.38-15.45L184.38-15.45Q184.38-16.55 184.63-21.8L184.63-21.8Q184.68-22.85 184.73-23.9 184.78-24.95 184.78-25.8L184.78-25.8Q184.78-31.6 184.63-33.45L184.63-33.45Q184.48-34.65 186.08-34.65L186.08-34.65Q186.48-34.65 187.38-34.55L187.38-34.55Q188.18-34.45 188.58-34.45L188.58-34.45 191.73-34.55Q195.13-34.75 196.98-34.75L196.98-34.75Q199.13-34.75 203.03-34.65L203.03-34.65Q204.28-34.6 205.68-34.6L205.68-34.6Q206.28-34.6 206.43-34.3 206.58-34 206.56-33.68 206.53-33.35 206.53-33.25L206.53-33.25ZM215.48-34.6L215.38-31.7Q215.13-24.7 215.13-24.1L215.13-24.1 215.08-16.95Q215.08-16 215.13-15.3L215.13-15.3 215.18-12.3Q215.18-11.25 215.13-11L215.13-11Q215.08-10.7 215.11-10.45 215.13-10.2 215.13-10.1L215.13-10.1Q215.13-9.9 215.18-9.85L215.18-9.85 216.38-9.75Q217.98-9.65 219.03-9.7L219.03-9.7 228.28-9.8Q228.28-9.8 233.53-9.65L233.53-9.65 235.88-9.6Q236.43-9.55 236.43-9.3L236.43-9.3Q236.43-9.2 236.38-9.05 236.33-8.9 236.33-8.75L236.33-8.75 236.33-6.45Q236.33-5.55 236.63-2.65L236.63-2.65 236.83-0.55 236.88-0.3Q236.88-0.05 236.63 0.03 236.38 0.1 235.73 0.1L235.73 0.1 232.08 0.05 225.88-0.05Q224.63-0.05 222.38 0.1L222.38 0.1Q221.38 0.15 220.16 0.2 218.93 0.25 217.73 0.25L217.73 0.25 216.88 0.2Q216.58 0.15 215.73 0.15L215.73 0.15 213.48 0.2Q212.88 0.25 211.93 0.25L211.93 0.25Q211.28 0.25 211.16 0.08 211.03-0.1 211.06-0.45 211.08-0.8 211.08-1.05L211.08-1.05Q211.08-2.15 211.23-4.85L211.23-4.85 211.38-10 211.28-12.35Q211.23-13.05 211.18-14.03 211.13-15 211.13-16.05L211.13-16.05Q211.13-14.35 211.43-19.48 211.73-24.6 211.73-25.8L211.73-25.8 211.68-31.45 211.58-34.65 211.58-34.7Q211.58-35.1 212.13-35.1L212.13-35.1 212.83-35.05Q213.08-35.05 213.48-35.02 213.88-35 214.73-35L214.73-35 215.18-35Q215.48-35 215.48-34.6L215.48-34.6ZM258.78-34.9Q261.78-32.9 263.6-29.5 265.43-26.1 266.15-22.88 266.88-19.65 266.88-17.8L266.88-17.8Q266.88-14.7 265.9-10.6 264.93-6.5 261.73-2.98 258.53 0.55 252.48 0.55L252.48 0.55Q244.18 0.55 240.68-9.1L240.68-9.1Q239.13-13.45 238.93-18.8L238.93-18.8Q238.93-23.2 240.78-27.18 242.63-31.15 245.65-33.55 248.68-35.95 251.88-35.95L251.88-35.95Q254.78-35.95 256.2-35.8 257.63-35.65 258.78-34.9L258.78-34.9ZM252.23-2.25Q257.53-2.25 260.13-6.68 262.73-11.1 262.73-17.8L262.73-17.8Q262.73-21.9 261.5-25.38 260.28-28.85 258.05-30.93 255.83-33 252.93-33L252.93-33Q252.68-33 251.6-33 250.53-33 249.73-32.65 248.93-32.3 248.28-31.6L248.28-31.6Q246.63-29.95 245.5-28.58 244.38-27.2 243.25-24.5 242.13-21.8 242.13-18.25L242.13-18.25Q242.13-14.05 243.15-10.43 244.18-6.8 246.43-4.53 248.68-2.25 252.23-2.25L252.23-2.25ZM293.33-32.55Q293.53-32.3 294.45-31.2 295.38-30.1 295.88-28.75 296.38-27.4 296.38-25.85L296.38-25.85Q296.38-21.7 293.95-19.2 291.53-16.7 287.83-15.4L287.83-15.4Q283.83-14.05 279.28-14L279.28-14 279.18-8.55 279.08-1.5Q279.08 0 277.88 0L277.88 0Q277.58 0 277.28-0.05 276.98-0.1 276.78-0.1L276.78-0.1 274.88 0 272.93 0.1Q272.38 0.1 272.18-0.3 271.98-0.7 271.98-1.5L271.98-1.5Q271.98-1.75 272-2.45 272.03-3.15 272.03-4.55L272.03-4.55Q272.18-12.2 272.18-12.3L272.18-12.3 272.18-26Q272.18-28 272.38-30.35L272.38-30.35 272.58-33.65Q272.58-34.45 272.75-34.58 272.93-34.7 273.53-34.7L273.53-34.7Q273.93-34.7 275.93-34.9L275.93-34.9Q278.53-35.2 280.08-35.2L280.08-35.2Q284.28-35.2 286.5-35.08 288.73-34.95 290.5-34.38 292.28-33.8 293.33-32.55L293.33-32.55ZM289.13-18Q290.93-18.85 291.78-20.28 292.63-21.7 292.63-24.1L292.63-24.1Q292.63-26 292.23-28.05L292.23-28.05Q291.83-30.1 289.98-31.2 288.13-32.3 285.53-32.65L285.53-32.65Q284.18-32.85 282.33-32.85L282.33-32.85Q281.53-32.85 279.63-32.75L279.63-32.75 279.33-16.6Q281.28-16.55 283.08-16.75L283.08-16.75Q287.18-17.05 289.13-18L289.13-18ZM320.72-33.25L320.72-32.7Q320.72-31.55 320.52-31.55L320.52-31.55Q320.22-31.55 319.85-31.63 319.47-31.7 318.92-31.7L318.92-31.7 310.92-31.7 304.72-31.75Q304.42-31.75 302.47-31.6L302.47-31.6 301.32-31.5 301.22-30.15Q301.17-29.4 301.17-27.8L301.17-27.8Q301.17-27 301.27-25.7L301.27-25.7Q301.37-24.5 301.37-23.95L301.37-23.95 301.37-21.95Q301.37-21.15 301.42-20.7L301.42-20.7Q301.87-20.65 302.77-20.65L302.77-20.65 304.77-20.65Q305.07-20.65 305.97-20.75L305.97-20.75Q307.27-20.85 308.22-20.85L308.22-20.85Q308.62-20.85 311.02-20.7L311.02-20.7 312.12-20.65Q312.52-20.65 313.27-20.73 314.02-20.8 314.72-20.8L314.72-20.8 316.37-20.75Q317.67-20.65 318.17-20.65L318.17-20.65Q318.72-20.65 318.92-20.7L318.92-20.7 319.22-20.75Q319.57-20.75 319.72-20.53 319.87-20.3 319.82-20.1L319.82-20.1Q319.77-19.75 319.77-19.23 319.77-18.7 319.72-18.3L319.72-18.3Q319.67-17.9 319.57-17.82 319.47-17.75 318.97-17.75L318.97-17.75 316.97-17.95Q313.22-18.3 312.07-18.3L312.07-18.3Q307.82-18.3 305.82-18.15L305.82-18.15Q305.02-18.05 304.07-18.05 303.12-18.05 302.87-18.05L302.87-18.05Q301.92-18.05 301.47-18.1L301.47-18.1 301.32-17.3Q301.22-16.4 301.22-15.7L301.22-15.7Q301.22-15.1 301.32-14.3L301.32-14.3Q301.42-13.5 301.42-12.9L301.42-12.9 301.47-6.95 301.42-4.45Q301.37-4 301.37-3.2L301.37-3.2Q302.02-3.15 303.27-3.15L303.27-3.15Q304.32-3.1 306.52-3.1L306.52-3.1 309.22-3.05Q310.07-3 311.82-3L311.82-3Q312.87-3 314.57-3.1L314.57-3.1 316.67-3.15Q317.87-3.15 318.67-3.1 319.47-3.05 319.87-3.05L319.87-3.05Q320.27-3.05 320.35-2.9 320.42-2.75 320.42-2.25L320.42-2.25Q320.42-1.9 320.37-1.53 320.32-1.15 320.32-0.7L320.32-0.7Q320.32-0.35 320.07-0.23 319.82-0.1 319.27-0.1L319.27-0.1Q318.72-0.1 318.37-0.15L318.37-0.15Q317.02-0.3 312.92-0.3L312.92-0.3Q310.42-0.3 309.32-0.25L309.32-0.25Q308.47-0.2 306.52-0.2L306.52-0.2 301.87-0.25Q301.07-0.3 299.97-0.3L299.97-0.3Q299.27-0.3 299.05-0.48 298.82-0.65 298.82-1.05L298.82-1.05 298.87-1.85Q298.92-2.05 298.92-2.3L298.92-2.3Q298.92-2.45 298.87-3.03 298.82-3.6 298.82-5.15L298.82-5.15Q298.82-6.65 298.72-10.05L298.72-10.05Q298.57-12.85 298.57-15.45L298.57-15.45Q298.57-16.55 298.82-21.8L298.82-21.8Q298.87-22.85 298.92-23.9 298.97-24.95 298.97-25.8L298.97-25.8Q298.97-31.6 298.82-33.45L298.82-33.45Q298.67-34.65 300.27-34.65L300.27-34.65Q300.67-34.65 301.57-34.55L301.57-34.55Q302.37-34.45 302.77-34.45L302.77-34.45 305.92-34.55Q309.32-34.75 311.17-34.75L311.17-34.75Q313.32-34.75 317.22-34.65L317.22-34.65Q318.47-34.6 319.87-34.6L319.87-34.6Q320.47-34.6 320.62-34.3 320.77-34 320.75-33.68 320.72-33.35 320.72-33.25L320.72-33.25ZM347.92-2.05Q349.27-0.7 349.27-0.2L349.27-0.2Q349.27-0.1 349.02 0.15L349.02 0.15Q348.57 0.45 346.77 0.45L346.77 0.45Q345.47 0.45 345.12 0.28 344.77 0.1 344.6-0.3 344.42-0.7 344.32-0.9L344.32-0.9Q344.17-1.2 343.1-2.63 342.02-4.05 341.47-4.8L341.47-4.8Q338.82-8.2 336.87-10.95L336.87-10.95Q335.67-12.65 332.42-16.8L332.42-16.8 331.62-17.8 328.17-22.1 327.97-20.1Q327.77-18.6 327.87-16.5L327.87-16.5Q328.02-15.1 328.07-9.25 328.12-3.4 328.12-0.7L328.12-0.7Q328.12 0.1 327.52 0.33 326.92 0.55 326.12 0.55L326.12 0.55Q325.77 0.55 325.67 0.25 325.57-0.05 325.55-0.4 325.52-0.75 325.52-0.85L325.52-0.85Q325.42-1.65 325.42-3.2L325.42-3.2Q325.42-4.2 325.47-4.7L325.47-4.7Q325.52-7.4 325.62-14.13 325.72-20.85 325.72-26.2L325.72-26.2Q325.72-31.95 325.57-32.9L325.57-32.9Q325.52-33.3 325.52-33.95L325.52-33.95Q325.52-34.7 325.75-34.9 325.97-35.1 326.42-35.1L326.42-35.1Q327.42-35.1 328.37-35.05L328.37-35.05 333.82-34.95Q336.82-34.95 340.07-33.9 343.32-32.85 343.32-30L343.32-30Q343.32-27.3 341.32-25.8 339.32-24.3 336.85-23.75 334.37-23.2 332.52-23.2L332.52-23.2Q331.87-23.2 331.82-23.25L331.82-23.25Q332.12-22.95 335.77-17.95L335.77-17.95Q346.77-3.2 347.92-2.05L347.92-2.05ZM328.02-25.25Q329.67-25.25 330.52-25.3L330.52-25.3Q333.42-25.4 335.02-25.7L335.02-25.7Q337.32-26.1 338.5-26.8 339.67-27.5 339.67-29L339.67-29Q339.67-30 338.62-30.73 337.57-31.45 336.1-31.83 334.62-32.2 333.52-32.2L333.52-32.2Q332.27-32.25 330.02-32.25L330.02-32.25 328.32-32.25 328.02-25.25Z" opacity="1" transform="matrix(1,0,0,1,0,0)" fill="#ffffff" class="wordmark-text-0" data-fill-palette-color="primary" id="text-0"></path></svg></g></svg></g></svg></g></svg></g><g></g></svg></g></svg></g></svg></g><g mask="url(#41880759-9ad2-4bf2-900b-5cbc3dbd6d9e)"><g transform="matrix(3.065, 0, 0, 3.065, 90.94342178344726, 1)"><svg xmlns="http://www.w3.org/2000/svg" xmlns:xlink="http://www.w3.org/1999/xlink" version="1.1" x="0" y="0" viewBox="13.099998474121094 8 69.70086669921875 80" style="enable-background:new 0 0 96 96;" xml:space="preserve" height="80" width="69.70086669921875" class="icon-none" data-fill-palette-color="accent" id="none"><g fill="#574343" data-fill-palette-color="accent"><path d="M48 43.3c9.7 0 17.7-7.9 17.7-17.7C65.7 15.9 57.7 8 48 8s-17.7 7.9-17.7 17.7C30.3 35.4 38.3 43.3 48 43.3z" fill="#ffffff" data-fill-palette-color="accent"></path><path d="M63.4 44.3c-0.6 0-1.1 0.2-1.5 0.6-3.7 3.6-8.7 5.6-13.9 5.6s-10.1-2-13.9-5.6c-0.4-0.4-1-0.6-1.5-0.6-10.9 0.8-19.5 10-19.5 21V75c0 7.2 5.8 13 13 13h43.7c7.2 0 13-5.8 13-13v-9.7C82.9 54.3 74.3 45.1 63.4 44.3zM39.7 72.6c0.8 0.8 0.8 2 0 2.8-0.4 0.4-0.9 0.6-1.4 0.6s-1-0.2-1.4-0.6l-5.1-5.1c-0.8-0.8-0.8-2 0-2.8l5.1-5.1c0.8-0.8 2-0.8 2.8 0 0.8 0.8 0.8 2.1 0 2.9L36 69 39.7 72.6zM53.1 59.6l-5.6 19.9c-0.2 0.9-1 1.5-1.9 1.5-0.1 0-0.3 0-0.5-0.1-1.1-0.3-1.7-1.4-1.4-2.5l5.6-19.9c0.3-1.1 1.4-1.7 2.5-1.4C52.8 57.4 53.4 58.5 53.1 59.6zM64.2 70.4l-5.1 5.1c-0.4 0.4-0.9 0.6-1.4 0.6s-1-0.2-1.4-0.6c-0.8-0.8-0.8-2 0-2.8L60 69l-3.7-3.8c-0.8-0.8-0.8-2 0-2.8 0.8-0.8 2-0.8 2.8 0l5.1 5.2C65 68.4 65 69.6 64.2 70.4z" fill="#ffffff" data-fill-palette-color="accent"></path></g></svg></g></g></svg></g><defs></defs></svg><rect width="395.52" height="247.2" fill="none" stroke="none" visibility="hidden"></rect></g></svg></g></svg>